# xmcd
# Copyright (C) 1995-1998 Ti Kan
#
# Track frame offsets:
#       150
#       12797
#       26227
#       34485
#       47415
#       55437
#       79772
#       90807
#       104777
#       126567
#       159040
#       169642
#       181815
#       190970
#       201595
#
# Disc length: 2998 seconds
#
# Revision: 0
# Processed by: cddbd v1.5.2PL0 Copyright (c) Steve Scherf et al.
# Submitted via: CD-Import v1.0
#
DISCID=c60bb40f
DTITLE=Ennio Morricone - Movie Classics
DYEAR=1996
DGENRE=
TTITLE0=The Good, The Bad and The Ugly
TTITLE1=A Fistful Of Dollars - Main Titles
TTITLE2=A Fistful Of Dollars
TTITLE3=For A Few Dollars More
TTITLE4=Bye Bye Colonel
TTITLE5=The Ballad Of Sacco and Vanzetti
TTITLE6=The Vice Of Killing
TTITLE7=Paying Off Scores
TTITLE8=The Adventurer
TTITLE9=Once Upon A Time In The West: The Harmonica Man/Main Titles
TTITLE10=A Gun For Ringo
TTITLE11=Metello
TTITLE12=The Man From U.n.c.l.e.
TTITLE13=Sixty Seconds To What?
TTITLE14=The Battle Of Algiers: Ali's Theme
EXTD=
EXTT0=
EXTT1=
EXTT2=
EXTT3=
EXTT4=
EXTT5=
EXTT6=
EXTT7=
EXTT8=
EXTT9=
EXTT10=
EXTT11=
EXTT12=
EXTT13=
EXTT14=
PLAYORDER=
